<?xml version="1.0" encoding="UTF-8"?>
<svg id="Layer_1" xmlns="http://www.w3.org/2000/svg" version="1.1" viewBox="0 0 55.6 51.6">
  <!-- Generator: Adobe Illustrator 29.0.0, SVG Export Plug-In . SVG Version: 2.1.0 Build 186)  -->
  <defs>
    <style>
      .st0 {
        fill: #451a8a;
      }

      .st0, .st1, .st2 {
        fill-rule: evenodd;
      }

      .st1 {
        fill: #0d99bb;
      }

      .st2 {
        fill: #97b030;
      }
    </style>
  </defs>
  <g id="Laptop-Platform---Round">
    <g id="tarowors-logo-nav">
      <g id="TaroWorks_logo">
        <g id="Leafs">
          <path id="path6239" class="st2" d="M53.7,15s-3.4,4.2-7.7,7.3c.5,2,.7,4,.7,6,0,2.3-.4,4.6-1.2,6.7-.5,1.3-1,2.5-1.7,3.6-1.1,1.8-2.6,3.5-4.4,5.1-1.4,1.2-4.6,3.3-4.5,3.8.2,1,2.5.4,4.8-.1,5.2-1.2,11.4-4.7,12.9-12.8,1.5-8,1.3-12.2,1.1-19.6"/>
          <path id="path6241" class="st1" d="M32.4,35.8c-.8-8-8.3-13.3-14.8-14.6-3.8-.8-14.9,0-17.3.1,0,0,3.5,14.1,10.7,22.7,5.4,6.3,13.3,6,14.9,4.6,2.1-1.8.6-7-2.5-12.8-1.9-3.6-6.3-6.2-5.7-6.1,12.1.9,10.7,16.9,12.3,16.6,1.6-.2,3-4.7,2.5-10.4"/>
          <path id="path6243" class="st0" d="M41.4,21c-1-2.6-2.4-5-4-6.9-2.4-2.9-4.3-4.8-6.4-6.6-2-1.8-4.2-3.3-6.8-5.3l-1.4-1.1.2,1.8h0c0,.1.3,2.2.4,4.9,0,2.8,0,6.3-.7,9.2-.1.5-.2,1-.4,1.4,3.2,1.4,7.1,4,9.5,6.7-.2-3.8-1.8-8.1-3.1-11.8,4.1,4.6,7.9,7.4,6.7,21.3-.3,3.5-2.9,9.8-1.9,10.3,1,.5,5.8-5.4,6.9-7.1.6-1,1.1-2,1.4-3,.7-1.8,1-3.7,1-5.6,0-2.8-.5-5.7-1.5-8.3"/>
        </g>
      </g>
    </g>
  </g>
</svg>